<mxfile host="app.diagrams.net" modified="2020-09-22T13:35:42.453Z" agent="5.0 (Windows)" etag="AhKcHEzXG7OtojjBJNoX" version="13.7.4" type="github">
  <diagram id="4BBpszr6yqTaOu6I7IrI" name="Page-1">
    <mxGraphModel dx="868" dy="479" grid="1" gridSize="10" guides="1" tooltips="1" connect="1" arrows="1" fold="1" page="1" pageScale="1" pageWidth="827" pageHeight="1169" math="0" shadow="0">
      <root>
        <mxCell id="0" />
        <mxCell id="1" parent="0" />
        <mxCell id="o8EUcxwZZLcuRB5tjPqq-3" value="" style="edgeStyle=orthogonalEdgeStyle;rounded=0;orthogonalLoop=1;jettySize=auto;html=1;" parent="1" source="o8EUcxwZZLcuRB5tjPqq-1" target="o8EUcxwZZLcuRB5tjPqq-2" edge="1">
          <mxGeometry relative="1" as="geometry" />
        </mxCell>
        <mxCell id="o8EUcxwZZLcuRB5tjPqq-5" value="" style="edgeStyle=orthogonalEdgeStyle;rounded=0;orthogonalLoop=1;jettySize=auto;html=1;" parent="1" source="o8EUcxwZZLcuRB5tjPqq-1" target="o8EUcxwZZLcuRB5tjPqq-4" edge="1">
          <mxGeometry relative="1" as="geometry" />
        </mxCell>
        <mxCell id="o8EUcxwZZLcuRB5tjPqq-1" value="View -Gerar relatório" style="rounded=1;whiteSpace=wrap;html=1;" parent="1" vertex="1">
          <mxGeometry x="160" y="60" width="120" height="60" as="geometry" />
        </mxCell>
        <mxCell id="o8EUcxwZZLcuRB5tjPqq-2" value="application\views\homeCgmrr\relatorioSupervisao\imprimirRelatorioView.php" style="text;html=1;align=center;verticalAlign=middle;resizable=0;points=[];autosize=1;" parent="1" vertex="1">
          <mxGeometry x="330" y="80" width="440" height="20" as="geometry" />
        </mxCell>
        <mxCell id="o8EUcxwZZLcuRB5tjPqq-7" value="" style="edgeStyle=orthogonalEdgeStyle;rounded=0;orthogonalLoop=1;jettySize=auto;html=1;" parent="1" source="o8EUcxwZZLcuRB5tjPqq-4" target="o8EUcxwZZLcuRB5tjPqq-6" edge="1">
          <mxGeometry relative="1" as="geometry" />
        </mxCell>
        <mxCell id="o8EUcxwZZLcuRB5tjPqq-9" value="" style="edgeStyle=orthogonalEdgeStyle;rounded=0;orthogonalLoop=1;jettySize=auto;html=1;" parent="1" source="o8EUcxwZZLcuRB5tjPqq-4" target="o8EUcxwZZLcuRB5tjPqq-8" edge="1">
          <mxGeometry relative="1" as="geometry" />
        </mxCell>
        <mxCell id="o8EUcxwZZLcuRB5tjPqq-4" value="Botão relatório" style="whiteSpace=wrap;html=1;rounded=1;" parent="1" vertex="1">
          <mxGeometry x="160" y="150" width="120" height="60" as="geometry" />
        </mxCell>
        <mxCell id="o8EUcxwZZLcuRB5tjPqq-6" value="&lt;div&gt;GerarRelatorio()&lt;/div&gt;&lt;div&gt;Registrado através do JS:&amp;nbsp; &lt;br&gt;&lt;/div&gt;&lt;div&gt;\assets\js\homeCgmrr\relatorioSupervisao\imprimirRelatorio.js&lt;br&gt;&lt;/div&gt;" style="text;html=1;align=center;verticalAlign=middle;resizable=0;points=[];autosize=1;" parent="1" vertex="1">
          <mxGeometry x="330" y="155" width="360" height="50" as="geometry" />
        </mxCell>
        <mxCell id="o8EUcxwZZLcuRB5tjPqq-11" value="" style="edgeStyle=orthogonalEdgeStyle;rounded=0;orthogonalLoop=1;jettySize=auto;html=1;" parent="1" source="o8EUcxwZZLcuRB5tjPqq-8" target="o8EUcxwZZLcuRB5tjPqq-10" edge="1">
          <mxGeometry relative="1" as="geometry" />
        </mxCell>
        <mxCell id="o8EUcxwZZLcuRB5tjPqq-13" value="" style="edgeStyle=orthogonalEdgeStyle;rounded=0;orthogonalLoop=1;jettySize=auto;html=1;" parent="1" source="o8EUcxwZZLcuRB5tjPqq-8" target="o8EUcxwZZLcuRB5tjPqq-12" edge="1">
          <mxGeometry relative="1" as="geometry" />
        </mxCell>
        <mxCell id="o8EUcxwZZLcuRB5tjPqq-15" value="" style="edgeStyle=orthogonalEdgeStyle;rounded=0;orthogonalLoop=1;jettySize=auto;html=1;" parent="1" source="o8EUcxwZZLcuRB5tjPqq-8" target="o8EUcxwZZLcuRB5tjPqq-14" edge="1">
          <mxGeometry relative="1" as="geometry" />
        </mxCell>
        <mxCell id="o8EUcxwZZLcuRB5tjPqq-8" value="&lt;div&gt;Ajax:&lt;/div&gt;&lt;div&gt;Chama as funções mais pesadas:&lt;/div&gt;&lt;div&gt;1) Quadro Comparativo&lt;/div&gt;&lt;div&gt;2) Avanço Físico&lt;/div&gt;&lt;div&gt;3) Abre a janela do relatório&lt;/div&gt;" style="whiteSpace=wrap;html=1;rounded=1;" parent="1" vertex="1">
          <mxGeometry x="110" y="250" width="220" height="90" as="geometry" />
        </mxCell>
        <mxCell id="o8EUcxwZZLcuRB5tjPqq-10" value="base_url + &#39;/homeCgmrr/Encerramento/quadroComparativo&#39;" style="text;html=1;align=center;verticalAlign=middle;resizable=0;points=[];autosize=1;" parent="1" vertex="1">
          <mxGeometry x="390" y="270" width="340" height="20" as="geometry" />
        </mxCell>
        <mxCell id="o8EUcxwZZLcuRB5tjPqq-12" value="base_url + &#39;/homeCgmrr/Encerramento/avancoFisico&#39;" style="text;html=1;align=center;verticalAlign=middle;resizable=0;points=[];autosize=1;" parent="1" vertex="1">
          <mxGeometry x="390" y="300" width="310" height="20" as="geometry" />
        </mxCell>
        <mxCell id="o8EUcxwZZLcuRB5tjPqq-17" value="" style="edgeStyle=orthogonalEdgeStyle;rounded=0;orthogonalLoop=1;jettySize=auto;html=1;" parent="1" source="o8EUcxwZZLcuRB5tjPqq-14" target="o8EUcxwZZLcuRB5tjPqq-16" edge="1">
          <mxGeometry relative="1" as="geometry" />
        </mxCell>
        <mxCell id="P8OVS8Y2kgAeHacPPdGE-2" value="" style="edgeStyle=orthogonalEdgeStyle;rounded=0;orthogonalLoop=1;jettySize=auto;html=1;" edge="1" parent="1" source="o8EUcxwZZLcuRB5tjPqq-14" target="P8OVS8Y2kgAeHacPPdGE-1">
          <mxGeometry relative="1" as="geometry" />
        </mxCell>
        <mxCell id="o8EUcxwZZLcuRB5tjPqq-14" value="Imprimi o relatório" style="whiteSpace=wrap;html=1;rounded=1;" parent="1" vertex="1">
          <mxGeometry x="110" y="370" width="220" height="40" as="geometry" />
        </mxCell>
        <mxCell id="o8EUcxwZZLcuRB5tjPqq-16" value="base_url + &#39;/homeCgmrr/Encerramento/imprimirMin&#39;" style="text;html=1;align=center;verticalAlign=middle;resizable=0;points=[];autosize=1;" parent="1" vertex="1">
          <mxGeometry x="370" y="380" width="300" height="20" as="geometry" />
        </mxCell>
        <mxCell id="P8OVS8Y2kgAeHacPPdGE-5" value="" style="edgeStyle=orthogonalEdgeStyle;rounded=0;orthogonalLoop=1;jettySize=auto;html=1;" edge="1" parent="1" source="P8OVS8Y2kgAeHacPPdGE-1" target="P8OVS8Y2kgAeHacPPdGE-4">
          <mxGeometry relative="1" as="geometry" />
        </mxCell>
        <mxCell id="P8OVS8Y2kgAeHacPPdGE-1" value="&lt;div&gt;1) Pesquisar BR´s&lt;/div&gt;&lt;div&gt;2) Inicializa sumário&lt;/div&gt;&lt;div&gt;3) Dados das rodovias&lt;/div&gt;&lt;div&gt;4) Dados dos segmentos&lt;/div&gt;&lt;div&gt;5) Período de referência&lt;/div&gt;&lt;div&gt;6) Pesquisa informações da Construtora e Supervisora&lt;/div&gt;" style="whiteSpace=wrap;html=1;rounded=1;" vertex="1" parent="1">
          <mxGeometry x="60" y="440" width="320" height="110" as="geometry" />
        </mxCell>
        <mxCell id="P8OVS8Y2kgAeHacPPdGE-7" value="" style="edgeStyle=orthogonalEdgeStyle;rounded=0;orthogonalLoop=1;jettySize=auto;html=1;" edge="1" parent="1" source="P8OVS8Y2kgAeHacPPdGE-4" target="P8OVS8Y2kgAeHacPPdGE-6">
          <mxGeometry relative="1" as="geometry" />
        </mxCell>
        <mxCell id="P8OVS8Y2kgAeHacPPdGE-4" value="&lt;div&gt;7) Recupera apresentação deste período&lt;/div&gt;&lt;div&gt;8) Recupera mapa de situação&lt;/div&gt;&lt;div&gt;9) Recupera número do relatório&lt;/div&gt;" style="whiteSpace=wrap;html=1;rounded=1;" vertex="1" parent="1">
          <mxGeometry x="60" y="585" width="320" height="65" as="geometry" />
        </mxCell>
        <mxCell id="P8OVS8Y2kgAeHacPPdGE-9" value="" style="edgeStyle=orthogonalEdgeStyle;rounded=0;orthogonalLoop=1;jettySize=auto;html=1;" edge="1" parent="1" source="P8OVS8Y2kgAeHacPPdGE-6" target="P8OVS8Y2kgAeHacPPdGE-8">
          <mxGeometry relative="1" as="geometry" />
        </mxCell>
        <mxCell id="P8OVS8Y2kgAeHacPPdGE-13" value="" style="edgeStyle=orthogonalEdgeStyle;rounded=0;orthogonalLoop=1;jettySize=auto;html=1;" edge="1" parent="1" source="P8OVS8Y2kgAeHacPPdGE-6" target="P8OVS8Y2kgAeHacPPdGE-12">
          <mxGeometry relative="1" as="geometry" />
        </mxCell>
        <mxCell id="P8OVS8Y2kgAeHacPPdGE-6" value="Gera Quadro Comparativo" style="whiteSpace=wrap;html=1;rounded=1;fillColor=#f8cecc;strokeColor=#b85450;" vertex="1" parent="1">
          <mxGeometry x="60" y="680" width="320" height="50" as="geometry" />
        </mxCell>
        <mxCell id="P8OVS8Y2kgAeHacPPdGE-11" value="" style="edgeStyle=orthogonalEdgeStyle;rounded=0;orthogonalLoop=1;jettySize=auto;html=1;" edge="1" parent="1" source="P8OVS8Y2kgAeHacPPdGE-8" target="P8OVS8Y2kgAeHacPPdGE-10">
          <mxGeometry relative="1" as="geometry" />
        </mxCell>
        <mxCell id="P8OVS8Y2kgAeHacPPdGE-14" value="" style="edgeStyle=orthogonalEdgeStyle;rounded=0;orthogonalLoop=1;jettySize=auto;html=1;" edge="1" parent="1" source="P8OVS8Y2kgAeHacPPdGE-8" target="P8OVS8Y2kgAeHacPPdGE-12">
          <mxGeometry relative="1" as="geometry" />
        </mxCell>
        <mxCell id="P8OVS8Y2kgAeHacPPdGE-8" value="Gera Avanço físico Geral" style="whiteSpace=wrap;html=1;rounded=1;fillColor=#f8cecc;strokeColor=#b85450;" vertex="1" parent="1">
          <mxGeometry x="60" y="760" width="320" height="50" as="geometry" />
        </mxCell>
        <mxCell id="P8OVS8Y2kgAeHacPPdGE-15" value="" style="edgeStyle=orthogonalEdgeStyle;rounded=0;orthogonalLoop=1;jettySize=auto;html=1;" edge="1" parent="1" source="P8OVS8Y2kgAeHacPPdGE-10" target="P8OVS8Y2kgAeHacPPdGE-12">
          <mxGeometry relative="1" as="geometry" />
        </mxCell>
        <mxCell id="P8OVS8Y2kgAeHacPPdGE-10" value="Gera Avanço físico Mensal" style="whiteSpace=wrap;html=1;rounded=1;fillColor=#f8cecc;strokeColor=#b85450;" vertex="1" parent="1">
          <mxGeometry x="60" y="840" width="320" height="50" as="geometry" />
        </mxCell>
        <mxCell id="P8OVS8Y2kgAeHacPPdGE-12" value="&lt;div&gt;Gera o html em:&lt;/div&gt;&lt;div&gt;arquivos\cgmrr\htmlRelatoriosCrema&lt;/div&gt;&lt;div&gt;O html tem intuito de diminuir o tempo de processamento destas informações, que são muito pesadas.&lt;/div&gt;" style="whiteSpace=wrap;html=1;rounded=1;fillColor=#f8cecc;strokeColor=#b85450;" vertex="1" parent="1">
          <mxGeometry x="420" y="750" width="320" height="70" as="geometry" />
        </mxCell>
      </root>
    </mxGraphModel>
  </diagram>
</mxfile>
